<?xml version="1.0" encoding="UTF-8" standalone="no"?>
<svg width="81px" height="35px" viewBox="0 0 81 35" version="1.1" xmlns="http://www.w3.org/2000/svg" xmlns:xlink="http://www.w3.org/1999/xlink">
    <!-- Generator: Sketch 42 (36781) - http://www.bohemiancoding.com/sketch -->
    <title>Page 1</title>
    <desc>Created with Sketch.</desc>
    <defs>
        <polygon id="path-1" points="14.7481888 0.034987189 14.7481888 32.6730337 0.163820225 32.6730337 0.163820225 0.034987189 14.7481888 0.034987189"></polygon>
    </defs>
    <g id="Page-1" stroke="none" stroke-width="1" fill="none" fill-rule="evenodd">
        <g id="Artboard-Copy-29" transform="translate(-68.000000, -27.000000)">
            <g id="Page-1" transform="translate(68.146258, 27.000000)">
                <polygon id="Fill-1" fill="#FFFFFF" points="0.12741573 14.5982022 10.9031461 14.5982022 10.9031461 5.2058427 0.12741573 5.2058427"></polygon>
                <g id="Group-21" transform="translate(0.000000, 0.000000)">
                    <path d="M26.2925843,16.3331296 C26.2925843,16.3139954 26.2925843,16.3139954 26.2925843,16.3331296 C26.2925843,16.3139954 26.2925843,16.3139954 26.2925843,16.3331296 C26.2925843,16.1800562 25.8834934,16.1800562 25.8380388,16.3139954 C25.8380388,16.4479347 25.9289479,16.5818739 25.9289479,16.7158131 L25.9289479,16.4670688 L25.7925843,16.4670688 C25.7925843,16.8497523 25.7925843,16.6201422 25.8380388,16.6392764 C25.9289479,16.7349473 26.2925843,16.7349473 26.2925843,16.6392764 L26.2925843,16.3331296 Z" id="Fill-2" fill="#FFFFFF"></path>
                    <path d="M5.55168539,9.4105618 C2.98516854,9.4105618 0,7.33550562 0,4.78719101 L0,29.3966292 C0,31.9631461 2.98516854,34.0382022 5.55168539,34.0382022 C8.11820225,34.0382022 11.1033708,31.9631461 11.1033708,29.3966292 L11.1033708,4.78719101 C11.1033708,7.33550562 8.11820225,9.4105618 5.55168539,9.4105618" id="Fill-4" fill="#282828"></path>
                    <path d="M5.55168539,0.0546067416 C2.98516854,0.0546067416 0,2.12966292 0,4.69617978 L0,4.78719101 C0,7.35370787 2.98516854,9.42876404 5.55168539,9.42876404 C8.11820225,9.4105618 11.1033708,7.33550562 11.1033708,4.78719101 L11.1033708,4.69617978 C11.1033708,2.12966292 8.11820225,0.0546067416 5.55168539,0.0546067416" id="Fill-6" fill="#C42B4A"></path>
                    <path d="M26.0292135,16.8916854 C26.0292135,12.0680899 29.2874157,7.99078652 33.9289888,7.99078652 C36.3680899,7.99078652 38.0608989,8.79168539 39.7173034,10.0658427 C40.2633708,10.4844944 41.1734831,10.9759551 42.3930337,10.9759551 C44.7047191,10.9759551 46.5977528,9.13752809 46.5977528,6.8258427 C46.5977528,5.24224719 45.7422472,4.15011236 45.1233708,3.65865169 C42.3748315,1.34696629 38.8435955,0 33.9107865,0 C28.8323596,0 24.4274157,2.03865169 21.3694382,5.2058427 C23.9359551,8.26382022 26.0292135,12.3229213 26.0292135,16.8916854" id="Fill-8" fill="#282828"></path>
                    <path d="M42.8662921,22.9348315 C41.7741573,22.9348315 40.8458427,23.4262921 40.3725843,23.7903371 C38.6069663,25.1919101 36.7503371,26.0474157 34.311236,26.0474157 C29.2510112,26.0474157 26.0474157,22.0247191 26.0474157,17.0191011 C26.0474157,21.6060674 24.2635955,25.7379775 21.3330337,28.7959551 C24.3910112,31.9813483 28.7777528,34.0382022 33.801573,34.0382022 C39.171236,34.0382022 42.6660674,32.327191 45.4146067,29.8334831 C46.2155056,29.1053933 46.761573,28.1224719 46.761573,26.9029213 C46.761573,24.7004494 45.0505618,22.9348315 42.8662921,22.9348315" id="Fill-10" fill="#282828"></path>
                    <path d="M26.0292135,16.9826966 L25.992809,16.4002247 C25.992809,12.2683146 24.2453933,8.22741573 21.351236,5.18764045 C18.3842697,8.26382022 16.6004494,12.1408989 16.6004494,16.7278652 L16.6004494,16.9644944 C16.6004494,20.8961798 18.3842697,25.7379775 21.2966292,28.7777528 C24.227191,25.701573 26.0110112,21.5878652 26.0110112,17.0008989 L26.0110112,16.9826966 L26.0292135,16.9826966 Z" id="Fill-12" fill="#F3AB48"></path>
                    <path d="M62.3973034,27.9222472 L66.2379775,18.038427 L59.6305618,3.07617978 C58.611236,0.70988764 55.8626966,-0.345842697 53.5146067,0.673483146 C51.1665169,1.69280899 50.4566292,4.42314607 51.4759551,6.77123596 L62.2880899,31.2532584 C62.6339326,32.0541573 63.1617978,32.7094382 63.7624719,33.1826966 C62.2698876,31.9267416 61.6510112,29.8334831 62.3973034,27.9222472" id="Fill-14" fill="#282828"></path>
                    <g id="Group-18" transform="translate(66.074157, 0.000000)">
                        <mask id="mask-2" fill="white">
                            <use xlink:href="#path-1"></use>
                        </mask>
                        <g id="Clip-17"></g>
                        <path d="M12.0316854,0.364044944 C9.64719101,-0.58247191 6.93505618,0.58247191 6.00674157,2.96696629 L0.163820225,18.0202247 L4.36853933,27.5217978 C5.11483146,29.232809 4.84179775,31.2896629 3.73146067,32.6730337 C4.15011236,32.2179775 4.47775281,31.6719101 4.73258427,31.0530337 L14.3797753,6.11595506 C15.3262921,3.73146067 14.4161798,1.3105618 12.0316854,0.364044944" id="Fill-16" fill="#282828" mask="url(#mask-2)"></path>
                    </g>
                    <path d="M68.4040449,33.6559551 C70.7521348,32.6366292 71.4620225,29.8880899 70.4426966,27.54 L66.2379775,18.038427 L62.3973034,27.9222472 C61.6510112,29.8334831 62.2516854,31.9267416 63.7442697,33.1826966 C64.9274157,34.0746067 66.8568539,34.311236 68.4040449,33.6559551" id="Fill-19" fill="#42A766"></path>
                </g>
            </g>
        </g>
    </g>
</svg>